<?xml version="1.0" standalone="no"?>
<!DOCTYPE svg PUBLIC "-//W3C//DTD SVG 20010904//EN"
 "http://www.w3.org/TR/2001/REC-SVG-20010904/DTD/svg10.dtd">
<svg version="1.0" xmlns="http://www.w3.org/2000/svg"
 width="384.000000pt" height="384.000000pt" viewBox="0 0 384.000000 384.000000"
 preserveAspectRatio="xMidYMid meet">
<metadata>
Created by potrace 1.14, written by Peter Selinger 2001-2017
</metadata>
<g transform="translate(0.000000,384.000000) scale(0.100000,-0.100000)"
fill="#000000" stroke="none">
<path d="M1525 3055 c-5 -2 -42 -10 -82 -19 -275 -64 -502 -309 -552 -596 -3
-19 -5 -85 -5 -147 l1 -112 -31 -7 c-77 -17 -217 -102 -287 -175 -144 -151
-210 -318 -204 -519 5 -162 30 -248 110 -375 88 -138 216 -234 400 -298 59
-21 72 -22 1025 -23 1070 -3 1019 -5 1170 64 170 78 325 251 372 416 6 22 13
46 14 51 45 141 19 372 -56 510 -31 56 -114 167 -142 190 -7 6 -33 27 -58 47
-47 38 -167 102 -214 114 -14 3 -26 9 -27 13 0 3 -3 26 -5 51 -22 208 -179
389 -386 444 -53 14 -189 15 -258 1 -33 -6 -36 -4 -63 39 -87 139 -236 250
-412 306 -51 16 -101 23 -185 25 -63 2 -119 2 -125 0z"/>
</g>
</svg>
